<svg width="135" height="40" viewBox="0 0 135 40" fill="none" xmlns="http://www.w3.org/2000/svg">
<path d="M20 0C9 0 0 9 0 20C0 31 9 40 20 40C31 40 40 31 40 20C40 9 31 0 20 0ZM11.8 27.5C9.6 27.5 7.8 25.7 7.8 23.5C7.8 21.3 9.6 19.5 11.8 19.5C14 19.5 15.8 21.3 15.8 23.5C15.8 25.7 14 27.5 11.8 27.5ZM28.5 26.4C26.7 27.5 24.3 26.8 23.2 25L17.6 15.3C16.5 13.5 17.2 11.1 19 10C20.8 8.9 23.2 9.6 24.3 11.4L29.9 21.1C31 23 30.3 25.4 28.5 26.4Z" fill="#232E35"/>
<path d="M56.275 31L62.7 12.375H67.1L73.525 31H69.825L68.5 27H61.3L59.95 31H56.275ZM62.275 24H67.525L64.425 14.725H65.375L62.275 24Z" fill="#232E35"/>
<path d="M81.1596 31.3C79.8429 31.3 78.6679 30.9916 77.6346 30.375C76.6013 29.7416 75.7846 28.8833 75.1846 27.8C74.5846 26.7166 74.2846 25.5166 74.2846 24.2C74.2846 22.8666 74.5846 21.6666 75.1846 20.6C75.7846 19.5333 76.6013 18.6833 77.6346 18.05C78.6846 17.4166 79.8513 17.1 81.1346 17.1C82.1679 17.1 83.0846 17.3083 83.8846 17.725C84.7013 18.125 85.3429 18.6916 85.8096 19.425L85.3096 20.1V12.075H88.5846V31H85.4846V28.375L85.8346 29.025C85.3679 29.7583 84.7179 30.325 83.8846 30.725C83.0513 31.1083 82.1429 31.3 81.1596 31.3ZM81.5096 28.3C82.2596 28.3 82.9179 28.125 83.4846 27.775C84.0513 27.425 84.4929 26.9416 84.8096 26.325C85.1429 25.7083 85.3096 25 85.3096 24.2C85.3096 23.4166 85.1429 22.7166 84.8096 22.1C84.4929 21.4666 84.0513 20.975 83.4846 20.625C82.9179 20.275 82.2596 20.1 81.5096 20.1C80.7763 20.1 80.1179 20.2833 79.5346 20.65C78.9513 21 78.4929 21.4833 78.1596 22.1C77.8429 22.7 77.6846 23.4 77.6846 24.2C77.6846 25 77.8429 25.7083 78.1596 26.325C78.4929 26.9416 78.9513 27.425 79.5346 27.775C80.1179 28.125 80.7763 28.3 81.5096 28.3Z" fill="#232E35"/>
<path d="M95.7565 31.3C94.8065 31.3 93.9815 31.1416 93.2815 30.825C92.5815 30.5083 92.0398 30.0583 91.6565 29.475C91.2731 28.875 91.0815 28.1833 91.0815 27.4C91.0815 26.65 91.2481 25.9833 91.5815 25.4C91.9148 24.8 92.4315 24.3 93.1315 23.9C93.8315 23.5 94.7148 23.2166 95.7815 23.05L100.231 22.325V24.825L96.4065 25.475C95.7565 25.5916 95.2731 25.8 94.9565 26.1C94.6398 26.4 94.4815 26.7916 94.4815 27.275C94.4815 27.7416 94.6565 28.1166 95.0065 28.4C95.3731 28.6666 95.8231 28.8 96.3565 28.8C97.0398 28.8 97.6398 28.6583 98.1565 28.375C98.6898 28.075 99.0981 27.6666 99.3815 27.15C99.6815 26.6333 99.8315 26.0666 99.8315 25.45V21.95C99.8315 21.3666 99.5981 20.8833 99.1315 20.5C98.6815 20.1 98.0815 19.9 97.3315 19.9C96.6315 19.9 96.0065 20.0916 95.4565 20.475C94.9231 20.8416 94.5315 21.3333 94.2815 21.95L91.6065 20.65C91.8731 19.9333 92.2898 19.3166 92.8565 18.8C93.4398 18.2666 94.1231 17.85 94.9065 17.55C95.6898 17.25 96.5398 17.1 97.4565 17.1C98.5731 17.1 99.5565 17.3083 100.406 17.725C101.256 18.125 101.915 18.6916 102.381 19.425C102.865 20.1416 103.106 20.9833 103.106 21.95V31H100.006V28.675L100.706 28.625C100.356 29.2083 99.9398 29.7 99.4565 30.1C98.9731 30.4833 98.4231 30.7833 97.8065 31C97.1898 31.2 96.5065 31.3 95.7565 31.3Z" fill="#232E35"/>
<path d="M106.133 31V17.4H109.208V20.55L108.858 20.025C109.108 19.0416 109.608 18.3083 110.358 17.825C111.108 17.3416 111.992 17.1 113.008 17.1C114.125 17.1 115.108 17.3916 115.958 17.975C116.808 18.5583 117.358 19.325 117.608 20.275L116.683 20.35C117.1 19.2666 117.725 18.4583 118.558 17.925C119.392 17.375 120.35 17.1 121.433 17.1C122.4 17.1 123.258 17.3166 124.008 17.75C124.775 18.1833 125.375 18.7916 125.808 19.575C126.242 20.3416 126.458 21.2333 126.458 22.25V31H123.183V23.025C123.183 22.425 123.075 21.9083 122.858 21.475C122.642 21.0416 122.342 20.7083 121.958 20.475C121.575 20.225 121.108 20.1 120.558 20.1C120.042 20.1 119.583 20.225 119.183 20.475C118.783 20.7083 118.475 21.0416 118.258 21.475C118.042 21.9083 117.933 22.425 117.933 23.025V31H114.658V23.025C114.658 22.425 114.55 21.9083 114.333 21.475C114.117 21.0416 113.808 20.7083 113.408 20.475C113.025 20.225 112.567 20.1 112.033 20.1C111.517 20.1 111.058 20.225 110.658 20.475C110.258 20.7083 109.95 21.0416 109.733 21.475C109.517 21.9083 109.408 22.425 109.408 23.025V31H106.133Z" fill="#232E35"/>
<path d="M130.779 31V27.5H134.079V31H130.779Z" fill="#232E35"/>
</svg>
